<?xml version="1.0" encoding="UTF-8"?>
<svg version="1.1" xmlns="http://www.w3.org/2000/svg" width="652" height="652">
<path d="M0 0 C1.17769256 -0.00384115 2.35538513 -0.00768229 3.56876534 -0.01163983 C5.5035616 -0.01034011 5.5035616 -0.01034011 7.47744465 -0.00901413 C8.86469156 -0.01159878 10.25193773 -0.01461222 11.63918287 -0.01801753 C15.4509141 -0.02607904 19.2626265 -0.02787663 23.07436526 -0.028615 C27.18562329 -0.03046703 31.29687158 -0.03801513 35.40812397 -0.04475021 C44.3978807 -0.05832808 53.38763297 -0.06435742 62.37739825 -0.06876087 C67.99159226 -0.07152424 73.60578454 -0.07576177 79.21997738 -0.08026505 C94.76671935 -0.09245704 110.31345995 -0.10275647 125.8602066 -0.10614014 C126.85510037 -0.1063597 127.84999414 -0.10657927 128.8750362 -0.10680549 C129.87229858 -0.10702377 130.86956096 -0.10724204 131.89704341 -0.10746694 C133.91784712 -0.1079104 135.93865083 -0.10835696 137.95945454 -0.10880661 C138.9618411 -0.10902804 139.96422767 -0.10924947 140.99698959 -0.10947761 C157.23708452 -0.11342513 173.47713457 -0.13087805 189.71721216 -0.15416613 C206.39414354 -0.17788745 223.0710524 -0.19034234 239.74800092 -0.19150805 C249.11007209 -0.19242438 258.47208478 -0.19816602 267.83413982 -0.21632767 C275.80658536 -0.23173917 283.77895434 -0.23684292 291.75141194 -0.22858956 C295.81745326 -0.22468677 299.88334046 -0.22559448 303.94936275 -0.23964691 C307.67591142 -0.25240807 311.4021905 -0.25116906 315.12873892 -0.2390562 C317.10643601 -0.23618188 319.08413786 -0.24801818 321.0617978 -0.26047826 C330.23669798 -0.20970176 339.20227391 0.3573147 346.0475893 7.09578323 C346.87498615 7.89498184 347.702383 8.69418045 348.55485249 9.5175972 C349.41113239 10.38016129 350.2674123 11.24272537 351.14964008 12.13142776 C352.0540987 13.01767838 352.95855732 13.90392899 353.89042377 14.81703568 C356.35323336 17.23579878 358.79133857 19.67801991 361.2222147 22.12883759 C362.82736083 23.74701304 364.43584279 25.36181045 366.04511738 26.97587967 C369.45782469 30.39988189 372.86653709 33.82784338 376.27464008 37.25642776 C380.23750357 41.24305278 384.202075 45.22794951 388.17090702 49.20863342 C389.74153193 50.78565301 391.30907204 52.36569274 392.87647724 53.94591141 C393.85426221 54.92733407 394.83219077 55.90861371 395.81028461 56.88972855 C396.6506023 57.73528305 397.49091999 58.58083755 398.35670185 59.45201492 C400.52961833 61.53660822 402.72498966 63.52010381 405.00025654 65.48799515 C409.11842694 69.06293797 413.01165313 72.82529774 416.87913227 76.66804886 C417.6053931 77.3861322 418.33165394 78.10421555 419.07992268 78.84405899 C421.45511364 81.19466359 423.82635005 83.54919347 426.19651508 85.90486526 C427.01162807 86.71465458 427.82674107 87.52444389 428.66655445 88.35877228 C432.97320998 92.63882381 437.27626786 96.92245903 441.57688618 101.2085762 C445.12563049 104.74394656 448.68151309 108.27189299 452.24387836 111.79353714 C456.56307875 116.06338657 460.86984357 120.3454114 465.16798878 124.63645172 C466.80155729 126.26332125 468.43936676 127.8859443 470.08154774 129.50411987 C472.37890008 131.76976713 474.65988503 134.05077725 476.93772602 136.33601761 C477.61208195 136.9939682 478.28643787 137.65191879 478.98122883 138.32980728 C485.8563249 145.29640809 489.26668085 153.08073443 489.28386116 162.87156391 C489.288319 164.05013212 489.29277685 165.22870033 489.29736978 166.44298273 C489.29709323 168.38696149 489.29709323 168.38696149 489.2968111 170.37021255 C489.30011091 171.76000872 489.30383673 173.14980394 489.30795258 174.53959793 C489.31796754 178.36305719 489.32168857 182.18650075 489.32434189 186.00997126 C489.32824648 190.13217436 489.33782475 194.25436504 489.34655476 198.37656021 C489.36631544 208.33424399 489.37638515 218.29192878 489.38528255 228.24962726 C489.38966634 232.93979595 489.39503294 237.62996351 489.40027142 242.3201313 C489.41728376 257.91315254 489.43177749 273.50617307 489.43902016 289.09920216 C489.44093003 293.14550719 489.44285036 297.19181221 489.4448061 301.23811722 C489.44528984 302.24379759 489.44577358 303.24947796 489.44627198 304.2856335 C489.45457064 320.57362983 489.47990476 336.86155269 489.51238678 353.14951695 C489.54546916 369.87501172 489.56347001 386.60046916 489.5666644 403.32599682 C489.56882847 412.71552298 489.57756197 422.10494201 489.60312557 431.49443626 C489.62484871 439.49177812 489.63287507 447.48898682 489.62315879 455.48635484 C489.61861868 459.56471114 489.62048329 463.64279279 489.63992023 467.7211113 C489.65758581 471.46015475 489.65652711 475.19872389 489.64102294 478.93777262 C489.63753509 480.91975957 489.65364785 482.90175168 489.67062742 484.88366896 C489.60074618 494.63037433 488.21787024 503.88356849 481.1106081 511.10185623 C480.31935661 511.92129589 479.52810513 512.74073555 478.71287632 513.58500671 C477.86700836 514.42532566 477.0211404 515.26564461 476.14964008 516.13142776 C475.28642014 517.01512165 474.42320019 517.89881554 473.53382206 518.80928802 C470.63481943 521.76261764 467.70790536 524.68587976 464.7741518 527.6045723 C463.66081898 528.71598075 462.54771745 529.82762094 461.43482685 530.9394722 C459.05788743 533.31327616 456.67941028 535.68552411 454.2996912 538.05654144 C450.5304979 541.81209391 446.76522784 545.57156379 443.00050068 549.33159256 C435.01152316 557.30952166 427.01830512 565.28319585 419.02464008 573.25642776 C410.38495652 581.87404078 401.74603039 590.49240534 393.11198342 599.11566627 C389.37545753 602.84723498 385.6365136 606.57635805 381.89564586 610.30357385 C379.56434852 612.62737253 377.23516023 614.95327656 374.90651798 617.27973557 C373.83315345 618.35124027 372.75893103 619.42188645 371.68375111 620.49156952 C365.95377511 626.19318892 360.37790406 631.9615148 355.14964008 638.13142776 C349.05950424 645.02139383 342.36080886 650.26355793 333.14964008 652.13142776 C331.16731804 652.22641738 329.18209569 652.2662956 327.1975069 652.27186966 C325.37001911 652.28043488 325.37001911 652.28043488 323.50561237 652.28917313 C322.1585208 652.29041837 320.81142911 652.29154349 319.46433735 652.29256058 C318.04330536 652.29719071 316.62227462 652.30221563 315.20124531 652.30760574 C311.34383192 652.32071035 307.48643592 652.32717055 303.62900376 652.3316164 C301.21881105 652.3345494 298.80862306 652.33865457 296.39843273 652.34312057 C288.85659068 652.3567885 281.31475947 652.36645941 273.77290589 652.37032247 C265.06805968 652.37480591 256.36337029 652.39236996 247.65857178 652.42132306 C240.92810448 652.44293237 234.19768134 652.45302629 227.46717972 652.45436358 C223.44787116 652.45541187 219.42871016 652.461325 215.40943813 652.4791832 C211.62961831 652.49565166 207.85005717 652.49782548 204.07021427 652.48904419 C202.6838922 652.48827323 201.29755628 652.4926243 199.91126919 652.50250244 C198.01714066 652.5152068 196.12290834 652.50755891 194.2287569 652.49892044 C193.16928128 652.500387 192.10980566 652.50185356 191.01822472 652.50336456 C186.9238828 651.97249774 184.44461981 650.40578657 181.52876711 647.53636515 C179.54946128 644.08482914 179.73932314 640.79593113 179.77605247 636.92539787 C179.77210095 636.0868351 179.76814943 635.24827233 179.76407817 634.38429856 C179.75442151 631.55558813 179.76624615 628.72736771 179.77782917 625.8986702 C179.77525609 623.85771592 179.77135654 621.81676295 179.76623958 619.77581346 C179.75593147 614.152601 179.76429194 608.52954465 179.77553642 602.90633965 C179.78436561 596.8476078 179.77589408 590.78889862 179.76933002 584.73016739 C179.76016056 574.22673715 179.76146813 563.72334508 179.76951504 553.2199173 C179.7809337 538.02707047 179.77178911 522.83428442 179.75695323 507.64144306 C179.75005976 500.56574488 179.74411799 493.49004589 179.73837662 486.41434669 C179.73779988 485.70597772 179.73722314 484.99760875 179.73662892 484.26777405 C179.7230982 467.4026655 179.71851752 450.53755671 179.71580219 433.67244339 C179.71567905 432.93441236 179.7155559 432.19638132 179.71542902 431.43598571 C179.71271398 414.96370142 179.71179975 398.49141756 179.71285268 382.01913309 C179.71327747 375.29647351 179.71358499 368.57381392 179.71384907 361.85115433 C179.71389823 360.74515454 179.71389823 360.74515454 179.71394839 359.61681132 C179.71463399 342.7852337 179.71202923 325.95366735 179.69769669 309.12209511 C179.69679418 308.06116148 179.69679418 308.06116148 179.69587344 306.97879484 C179.68977603 299.91792238 179.68300907 292.85705085 179.67528792 285.79617998 C179.65880375 270.62031719 179.6528033 255.44455611 179.66812726 240.26869002 C179.67909977 229.20588339 179.67593432 218.1431398 179.65893621 207.08033659 C179.65021685 201.08471233 179.64816151 195.08927164 179.66346264 189.09365654 C179.67734914 183.60873156 179.67299871 178.12413967 179.65394162 172.63923304 C179.65031805 170.65137247 179.65351429 168.6634858 179.6640913 166.67565008 C179.6774732 163.97973874 179.66638501 161.28500326 179.64906883 158.58913994 C179.65883008 157.81189442 179.66859134 157.0346489 179.67864838 156.23385048 C179.60947598 151.06056032 178.40228381 148.12691015 175.14964008 144.13142776 C173.44834548 142.75229784 173.44834548 142.75229784 171.55393696 141.98958206 C170.85453999 141.67669235 170.15514301 141.36380264 169.43455219 141.04143143 C165.22454877 139.36472863 160.97338971 137.85237003 156.68089008 136.40095901 C155.66966587 136.05370773 154.65844166 135.70645645 153.61657429 135.3486824 C151.4365164 134.60052502 149.25562478 133.85479346 147.07398701 133.11125565 C141.1771973 131.10109511 135.28676727 129.07244541 129.39573383 127.04549026 C128.19222782 126.6318573 126.98872181 126.21822433 125.74874592 125.79205704 C115.33612562 122.2083575 104.9553024 118.53905649 94.58250141 114.84196854 C74.66721759 107.74385614 54.69425366 100.82138299 34.69606495 93.96128082 C14.38196834 86.99226721 -5.89446221 79.92426095 -26.12770367 72.72322464 C-27.48507137 72.24021896 -27.48507137 72.24021896 -28.86986065 71.7474556 C-30.6251407 71.12207205 -32.37997723 70.49544202 -34.13432598 69.86745071 C-38.58371293 68.27777404 -43.04147068 66.72076884 -47.51784039 65.2085762 C-48.43798428 64.89512253 -49.35812817 64.58166885 -50.3061552 64.25871658 C-52.05744479 63.66358672 -53.8111369 63.07546384 -55.56753826 62.49559402 C-56.34914822 62.22894943 -57.13075817 61.96230484 -57.93605328 61.68758011 C-58.96465717 61.34404999 -58.96465717 61.34404999 -60.01404095 60.99357986 C-62.29847507 59.92103762 -63.461988 59.27329448 -64.85035992 57.13142776 C-64.76220868 51.72411172 -63.51380389 49.04408613 -59.73292828 45.26936722 C-58.8578915 44.38187286 -57.98285473 43.49437851 -57.08130169 42.57999039 C-56.11820775 41.63427967 -55.15449258 40.68920125 -54.19020367 39.74470901 C-53.20086388 38.75640803 -52.21256323 37.76706583 -51.22525311 36.77673721 C-49.15555829 34.70722143 -47.07596136 32.64839007 -44.98829937 30.59700394 C-42.32736924 27.9813291 -39.68902807 25.34421281 -37.0574131 22.69908237 C-35.01883836 20.65378598 -32.97033959 18.61866978 -30.91862965 16.58655739 C-29.9428947 15.61846345 -28.96977299 14.64772761 -27.99945164 13.67420769 C-19.4517643 5.12181725 -12.41861729 0.0152299 0 0 Z " fill="#61A875" transform="translate(162.850359916687,-0.13142776489257813)"/>
<path d="M0 0 C0.84728165 0.31120789 1.69456329 0.62241577 2.56752014 0.9430542 C5.35570968 1.97062333 8.13667309 3.01643041 10.91796875 4.0625 C12.89622741 4.79572976 14.8749139 5.52780617 16.85400391 6.25878906 C21.96009523 8.14816316 27.06043461 10.05257399 32.15936279 11.96118164 C36.66048732 13.6437997 41.16619524 15.31400225 45.671875 16.984375 C52.68507504 19.58631839 59.69499746 22.19692769 66.703125 24.8125 C79.26683751 29.50050426 91.84210638 34.15720667 104.41796875 38.8125 C106.69035041 39.65380293 108.96272996 40.49511154 111.23510742 41.33642578 C115.84321527 43.0424432 120.45138018 44.74830642 125.05957031 46.45410156 C135.82135818 50.43790831 146.58231719 54.42395311 157.34335327 58.40979004 C163.88979563 60.83459333 163.88979563 60.83459333 170.43650818 63.25866699 C172.49878453 64.02281318 174.56061112 64.78817439 176.6219635 65.55480957 C182.24107637 67.64265644 187.86921837 69.70154874 193.51025391 71.72949219 C194.73944046 72.17505463 195.96862701 72.62061707 197.23506165 73.0796814 C199.60528531 73.93841762 201.97821251 74.78973971 204.35417175 75.63247681 C205.425569 76.02236786 206.49696625 76.41225891 207.60083008 76.81396484 C208.5446907 77.1522934 209.48855133 77.49062195 210.46101379 77.83920288 C216.03723087 80.4187024 218.78699118 83.40174744 221.10546875 89.0625 C221.38436209 91.82345212 221.51276868 94.35296928 221.4885788 97.10857391 C221.49353831 97.90554666 221.49849783 98.7025194 221.50360763 99.52364284 C221.51657892 102.19882573 221.50817426 104.87351075 221.49987793 107.54870605 C221.50476609 109.48414321 221.51095554 111.41957744 221.51833582 113.35500669 C221.53476763 118.67724877 221.53241081 123.99934303 221.52696085 129.32160163 C221.5242947 135.05992444 221.53881455 140.79820748 221.55105591 146.53651428 C221.57212867 157.77936679 221.57664974 169.02216774 221.57486802 180.26503766 C221.57356148 189.40052933 221.57735902 198.53600489 221.58479309 207.67149353 C221.58689223 210.30081733 221.58898983 212.93014113 221.59108591 215.55946493 C221.5926512 217.52234828 221.5926512 217.52234828 221.59424812 219.52488583 C221.60778445 237.24806956 221.6153732 254.97124637 221.61092377 272.69443512 C221.61075181 273.38754918 221.61057986 274.08066323 221.61040269 274.79478074 C221.60951379 278.30780963 221.60856898 281.8208385 221.60760468 285.33386737 C221.60741365 286.03157485 221.60722262 286.72928233 221.60702579 287.44813246 C221.6066387 288.85906583 221.60624838 290.2699992 221.60585482 291.68093257 C221.59988318 313.6410098 221.61533013 335.60098168 221.64746094 357.56103516 C221.68352347 382.22921548 221.7028289 406.89732648 221.69792223 431.56553507 C221.69567473 444.62860627 221.70096183 457.69157303 221.72581482 470.75462341 C221.74678917 481.87386834 221.75045823 492.99295153 221.73151523 504.112203 C221.7223341 509.78789318 221.72128721 515.46328148 221.74187088 521.13894844 C221.76049467 526.33150048 221.75617421 531.52350158 221.73332506 536.71603209 C221.72911755 538.59750904 221.73341098 540.47902754 221.746921 542.3604607 C221.76400701 544.91312057 221.75044448 547.46384057 221.72908783 550.01642609 C221.74750412 551.11886735 221.74750412 551.11886735 221.76629245 552.24358016 C221.66683022 557.91231434 220.03707269 560.26286884 216.10546875 564.0625 C213.16841743 565.04151711 211.28336928 565.18957731 208.22404766 565.19392776 C206.70536116 565.19968948 206.70536116 565.19968948 205.15599412 565.2055676 C203.48267847 565.20426787 203.48267847 565.20426787 201.77555847 565.20294189 C200.00171838 565.20739858 200.00171838 565.20739858 198.19204313 565.2119453 C194.90393243 565.21913302 191.61587396 565.22180519 188.32775915 565.22254276 C184.78369076 565.2243923 181.23963373 565.23193912 177.6955719 565.23867798 C169.94352936 565.25226582 162.191492 565.25828668 154.43943954 565.26268864 C149.6001873 565.26545022 144.76093706 565.26968741 139.92168617 565.27419281 C126.52646987 565.28638592 113.13125517 565.29668525 99.73603344 565.3000679 C98.87854091 565.30028747 98.02104838 565.30050703 97.13757123 565.30073325 C96.27801337 565.30095153 95.41845551 565.30116981 94.53285044 565.3013947 C92.79102464 565.30183817 91.04919885 565.30228473 89.30737305 565.30273438 C88.44336513 565.3029558 87.57935721 565.30317723 86.68916724 565.30340537 C72.68689101 565.30735399 58.68466681 565.32480977 44.68241068 565.3480939 C30.31078694 565.3717996 15.93918932 565.38426939 1.56754571 565.38543582 C-6.50334136 565.38635301 -14.57416065 565.39211627 -22.64502907 565.41025543 C-29.51714498 565.42564586 -36.38917216 565.43078315 -43.26130203 565.42251733 C-46.76786947 565.41860708 -50.27425817 565.41955849 -53.78080368 565.43357468 C-57.58191427 565.44621814 -61.38256314 565.4404583 -65.18367004 565.42999268 C-66.29252164 565.43804908 -67.40137324 565.44610548 -68.5438264 565.45440602 C-78.48238247 565.39021435 -78.48238247 565.39021435 -82.89453125 562.0625 C-85.86695006 557.32555039 -86.32319744 553.22444514 -86.27484798 547.76489735 C-86.28183786 546.52863167 -86.28183786 546.52863167 -86.28896895 545.26739094 C-86.30094064 542.49961703 -86.2915151 539.73233204 -86.2822113 536.96455383 C-86.28638329 534.9625591 -86.29186005 532.96056673 -86.29853112 530.95857877 C-86.31302264 525.4521598 -86.30872937 519.94589004 -86.3013643 514.43946278 C-86.296644 508.50268266 -86.30913252 502.56593534 -86.31938171 496.62916565 C-86.33560288 485.66834337 -86.33801003 474.70756378 -86.33307672 463.74673295 C-86.32852028 453.61818419 -86.32911778 443.48965316 -86.33491707 433.36110497 C-86.33567394 432.00268409 -86.33642992 430.64426321 -86.33718501 429.28584233 C-86.33833021 427.2388172 -86.33948009 425.19179207 -86.34064426 423.14476695 C-86.35135123 404.10986042 -86.35607268 385.0749598 -86.3481741 366.04005146 C-86.34787692 365.32235487 -86.34757975 364.60465829 -86.34727357 363.86521332 C-86.34482462 358.03698089 -86.34221304 352.20874854 -86.33958944 346.38051619 C-86.32949081 323.65509795 -86.33783429 300.92975363 -86.36108398 278.2043457 C-86.38716444 252.67070945 -86.40000208 227.13711771 -86.39289623 201.60346764 C-86.39218018 198.87996972 -86.39150579 196.1564718 -86.39085579 193.43297386 C-86.39068598 192.76238338 -86.39051617 192.09179291 -86.39034122 191.4008815 C-86.38803932 181.28302332 -86.39601019 171.16520647 -86.40914726 161.04735756 C-86.42385943 149.5366757 -86.42451769 138.02609724 -86.40707635 126.51541743 C-86.39855519 120.64270049 -86.39644418 114.77016832 -86.41172791 108.89746094 C-86.4255518 103.5190578 -86.42084106 98.14099814 -86.40148867 92.76261499 C-86.39772127 90.81914008 -86.40067189 88.87563782 -86.41110032 86.93218724 C-86.47454681 74.20068842 -86.33245078 62.92358773 -77.02807617 53.18814087 C-76.32400635 52.48667938 -75.61993652 51.7852179 -74.89453125 51.0625 C-73.63636597 49.76002823 -73.63636597 49.76002823 -72.3527832 48.4312439 C-69.36146487 45.33835951 -66.33363791 42.28255902 -63.30078125 39.23046875 C-62.75327713 38.6788891 -62.20577301 38.12730946 -61.64167786 37.55901527 C-58.75118967 34.64782587 -55.8575511 31.73980949 -52.96142578 28.83422852 C-49.98406213 25.84574426 -47.01857696 22.84574865 -44.05548859 19.84311962 C-41.7595223 17.52097316 -39.4546803 15.20779067 -37.14738464 12.8969059 C-36.05005483 11.79472554 -34.95608645 10.68918729 -33.86567688 9.58016014 C-32.33970382 8.0297322 -30.80146584 6.49253271 -29.25976562 4.95776367 C-28.39041382 4.08254562 -27.52106201 3.20732758 -26.62536621 2.30558777 C-18.05525724 -4.73383676 -9.71420869 -3.70403583 0 0 Z " fill="#7BCF84" transform="translate(85.89453125,86.9375)"/>
</svg>
